# xmcd
#
# Track frame offsets:
#	150
#	15077
#	28157
#	40887
#	58979
#	70239
#	87335
#	103475
#	115998
#	131618
#	151248
#	155207
#
# Disc length: 2254 seconds
#
# Revision: 1
# Processed by: cddbd v1.5.2PL0 Copyright (c) Steve Scherf et al.
# Submitted via: audiograbber 1.83.01
#
DISCID=a408cc0c
DTITLE=Raul Malo - Marshmallow World and Other Holiday Favorites
DYEAR=2007
DGENRE=Xmas
TTITLE0=Marshmallow World
TTITLE1=Not So Merry Christmas
TTITLE2=Jingle Bells
TTITLE3=Silent Night
TTITLE4=White Christmas
TTITLE5=Santa Claus Is Back In Town
TTITLE6=I'll Be Home For Christmas
TTITLE7=Blue Christmas
TTITLE8=Silver Bells
TTITLE9=Feliz Navidad
TTITLE10=Winter Wonderland
TTITLE11=Blue Christmas (live)
EXTD=
EXTT0=
EXTT1=
EXTT2=
EXTT3=
EXTT4=
EXTT5=
EXTT6=
EXTT7=
EXTT8=
EXTT9=
EXTT10=
EXTT11=
PLAYORDER=
